<svg xmlns="http://www.w3.org/2000/svg" id="_13357228871579177879" width="26.909" height="18.308" viewBox="0 0 26.909 18.308">
    <defs>
        <style>
            .cls-1{fill:#fff}
        </style>
    </defs>
    <g id="Group_8">
        <path id="Path_16" d="M140.061 143.908h10.893c.248 0 .6-.135.71.193.106.308-.213.482-.39.674-3.513 3.757-7.043 7.494-10.538 11.271-.532.559-.852.539-1.366-.019-3.477-3.757-6.99-7.475-10.467-11.213-.2-.212-.585-.366-.444-.732.142-.347.532-.173.816-.193 3.584.019 7.185.019 10.786.019z" class="cls-1" transform="translate(-126.607 -143.862)"/>
        <path id="Path_17" d="M139.013 207.8h-10.836c-.3 0-.728.173-.888-.212-.124-.328.266-.539.444-.751q3.171-3.641 6.324-7.283c.355-.424.568-.482.959-.039 1.137 1.272 2.327 2.466 3.464 3.738.462.52.782.5 1.243 0 1.137-1.252 2.327-2.466 3.464-3.718.32-.366.515-.347.835.019 2.2 2.524 4.406 5.009 6.608 7.533.142.154.373.328.266.559-.107.289-.409.193-.64.193-3.728-.039-7.494-.039-11.243-.039z" class="cls-1" transform="translate(-125.668 -189.544)"/>
        <path id="Path_18" d="M234.886 159.506v6.662c0 .289.154.668-.173.831-.385.163-.539-.235-.732-.433-2.293-2.239-4.566-4.478-6.859-6.7-.385-.361-.482-.56-.019-.975 2.331-2.094 4.624-4.243 6.955-6.373.193-.162.328-.524.694-.343.27.126.154.433.154.668-.02 2.222-.02 4.443-.02 6.663z" class="cls-1" transform="translate(-208.02 -150.534)"/>
        <path id="Path_19" d="M119 159.512v-6.662c0-.253-.135-.6.231-.7.289-.072.443.2.617.361 2.312 2.13 4.6 4.261 6.936 6.373.366.325.366.506.019.849-2.35 2.293-4.662 4.622-7.013 6.933-.173.162-.308.451-.6.343s-.193-.415-.193-.65c.003-2.28.003-4.559.003-6.847z" class="cls-1" transform="translate(-118.974 -150.54)"/>
    </g>
</svg>
