<svg xmlns="http://www.w3.org/2000/svg" width="18.594" height="18.544" viewBox="0 0 18.594 18.544">
    <g>
        <path fill="#fff" d="M143.5 148.17a7.5 7.5 0 0 1-3.1-.734 21.269 21.269 0 0 1-10.023-9.735 10.909 10.909 0 0 1-.835-2.29 4.978 4.978 0 0 1 2.045-5.357 1.467 1.467 0 0 1 2.376.418 28.751 28.751 0 0 1 2.059 3.2 2 2 0 0 1-.2 2.549 2.408 2.408 0 0 0 0 3.442 27.2 27.2 0 0 0 1.814 2.03 2.7 2.7 0 0 0 3.47.562 2.814 2.814 0 0 0 .5-.274 2.369 2.369 0 0 1 3.312.072 24.454 24.454 0 0 1 2.4 1.814 1.511 1.511 0 0 1 .2 2.347 4.526 4.526 0 0 1-4.018 1.956z" transform="translate(-129.4 -129.626)"/>
    </g>
</svg>
